<?xml version="1.0" standalone="no"?>
<!DOCTYPE svg PUBLIC "-//W3C//DTD SVG 20010904//EN"
 "http://www.w3.org/TR/2001/REC-SVG-20010904/DTD/svg10.dtd">
<svg version="1.0" xmlns="http://www.w3.org/2000/svg"
 width="500.000000pt" height="500.000000pt" viewBox="0 0 500.000000 500.000000"
 preserveAspectRatio="xMidYMid meet">

<g transform="translate(0.000000,500.000000) scale(0.100000,-0.100000)"
fill="#8c52ff" stroke="none">
<path d="M1855 4643 c-92 -14 -304 -93 -379 -141 -97 -62 -218 -168 -253 -221
-20 -31 -53 -82 -74 -113 -20 -32 -53 -106 -73 -165 -34 -102 -36 -115 -36
-242 0 -86 5 -154 15 -191 18 -71 67 -182 102 -233 28 -40 157 -139 232 -177
72 -36 157 -44 506 -44 l330 -1 6 -1025 c6 -1132 3 -1085 71 -1248 83 -200
221 -317 430 -363 81 -18 114 -20 258 -15 93 3 196 12 235 21 39 9 92 20 119
25 122 24 313 149 348 228 35 78 -5 158 -92 182 -61 17 -224 12 -333 -12 -132
-27 -271 -29 -346 -4 -83 29 -142 93 -167 181 -18 67 -19 114 -19 1050 l0 980
335 1 c361 1 549 19 670 63 30 11 86 31 124 45 37 14 77 33 87 42 22 20 25 76
6 114 -22 43 -71 54 -502 116 -27 4 -202 6 -387 5 l-338 -2 0 372 c0 394 -5
450 -51 540 -39 77 -169 165 -313 211 -51 17 -95 21 -271 23 -115 2 -223 1
-240 -2z m287 -419 c24 -17 47 -46 63 -80 25 -53 25 -53 25 -349 l0 -297 -292
4 -293 3 -83 44 c-72 39 -86 51 -114 100 -64 111 -34 239 88 370 33 36 86 79
128 103 39 22 87 50 106 63 30 19 119 52 185 69 11 3 49 3 84 1 49 -4 74 -11
103 -31z m1260 -3351 c36 -32 13 -95 -35 -95 -36 0 -57 19 -57 53 0 52 53 77
92 42z m82 -196 c21 -16 24 -60 6 -82 -16 -20 -59 -19 -82 2 -52 47 19 122 76
80z"/>
</g>
</svg>
